<svg width="21" height="20" fill="none" xmlns="http://www.w3.org/2000/svg"><path d="m13.673 18.912-.923-6.443a.63.63 0 0 1 .42-.586l6.458-.92c.252 0 .42-.252.42-.586l-.503-3.599c0-.25-.252-.418-.588-.418l-6.459.92a.63.63 0 0 1-.587-.418L10.99.418c0-.25-.252-.418-.588-.418L6.794.502c-.251 0-.419.251-.419.586l.923 6.443a.63.63 0 0 1-.42.586l-6.459.92c-.251 0-.419.252-.419.586l.503 3.599c0 .25.252.418.587.418l6.46-.92a.63.63 0 0 1 .587.418l.922 6.444c0 .25.252.418.587.418l3.607-.502a.63.63 0 0 0 .42-.586Z" fill="#FDD08D"/></svg>