<svg aria-hidden="true" style="position: absolute; width: 0; height: 0; overflow: hidden;" version="1.1"
  xmlns="http://www.w3.org/2000/svg" xmlns:xlink="http://www.w3.org/1999/xlink">
  <defs>

    <symbol id="logo" viewBox="0 0 32 32">
      <path fill="#1abe84" style="fill: var(--color1, #1abe84)"
        d="M32 16c0 8.837-7.163 16-16 16s-16-7.163-16-16c0-8.837 7.163-16 16-16s16 7.163 16 16z"></path>
      <path fill="#fb8f1d" style="fill: var(--color2, #fb8f1d); stroke: var(--color3, #fff)" stroke="#fff"
        stroke-linejoin="miter" stroke-linecap="butt" stroke-miterlimit="4" stroke-width="2.3415"
        d="M23.024 16c0 3.879-3.145 7.024-7.024 7.024s-7.024-3.145-7.024-7.024c0-3.879 3.145-7.024 7.024-7.024s7.024 3.145 7.024 7.024z">
      </path>
    </symbol>

    <symbol id="select" viewBox="0 0 53 32">
      <path
        d="M7.691 1.456l14.475 15.515c1.813 1.936 4.523 1.936 6.336 0l14.475-15.52c1.813-1.936 4.523-1.936 6.336 0 1.808 1.941 1.808 4.853 0 6.789l-20.811 22.304c-1.813 1.941-4.523 1.941-6.336 0l-20.811-22.304c-0.839-0.881-1.355-2.076-1.355-3.392s0.516-2.511 1.357-3.394l-0.002 0.002c1.813-1.941 4.528-1.941 6.336 0z">
      </path>
    </symbol>
  </defs>
</svg>